<svg width="45" height="37" viewBox="0 0 45 37" fill="none" xmlns="http://www.w3.org/2000/svg">
<path fill-rule="evenodd" clip-rule="evenodd" d="M0.628906 0.115234H44.6695V36.8849H0.628906V0.115234ZM2.67904 2.33138H42.5447V34.6771H2.67904V2.33138Z" fill="white"/>
<path d="M12.0915 23.4135C11.9504 23.2724 11.7761 23.1728 11.5769 23.0981C11.3777 23.0234 11.1536 22.9902 10.9046 22.9902H8.04102V28.5596H8.85443V26.4182C9.02874 26.3269 9.20304 26.2688 9.37734 26.2356C9.55994 26.2024 9.73425 26.1941 9.91685 26.1941H10.9046C11.1453 26.1941 11.3694 26.1609 11.5769 26.0862C11.7761 26.0115 11.9504 25.9036 12.0915 25.7625C12.2326 25.6214 12.3405 25.4471 12.4235 25.2562C12.4982 25.057 12.5397 24.8329 12.5397 24.5922C12.5397 24.3432 12.4982 24.1191 12.4235 23.9198C12.3488 23.7206 12.2409 23.5546 12.0915 23.4135ZM10.9046 25.3724H9.91685C9.73425 25.3724 9.55164 25.389 9.37734 25.4056C9.20304 25.4305 9.02873 25.4969 8.86273 25.5965V23.8119H10.9046C11.1702 23.8119 11.3777 23.87 11.5188 23.9863C11.6599 24.1025 11.7263 24.3017 11.7263 24.5839C11.7263 25.1151 11.4524 25.3724 10.9046 25.3724Z" fill="white"/>
<path d="M14.5825 27.2902V22.999H13.7773V28.5684H14.5825L17.8527 24.269V28.5684H18.6578V22.999H17.8527L14.5825 27.2902Z" fill="white"/>
<path d="M22.1258 22.832C21.2875 22.832 20.5322 23.1723 19.9844 23.7118L20.5073 24.3261C20.914 23.9111 21.5033 23.6537 22.1341 23.6537C23.487 23.6537 24.1593 24.4008 24.3087 25.4881C23.985 25.2972 23.6198 25.2723 23.2629 25.2723H21.4701V26.1023H23.2629C23.5949 26.1023 23.9518 26.1438 24.2672 26.3015C24.0265 27.2394 23.1218 27.8868 22.1341 27.8868C21.412 27.8868 20.7646 27.5548 20.3662 27.0153L19.8682 27.6959C20.4243 28.3267 21.246 28.7002 22.1424 28.7002C23.8273 28.7002 25.1388 27.3888 25.1388 25.7039C25.1222 24.0522 24.0182 22.832 22.1258 22.832Z" fill="white"/>
<path d="M26.4336 28.5684H27.2387V23.8124H30.2185V28.5684H31.0236V22.999H26.4336V28.5684Z" fill="white"/>
<path d="M32.6934 22.999V28.5684H33.4985V23.8124H36.4782V28.5684H37.2916V22.999H32.6934Z" fill="white"/>
<path d="M36.9841 6.58007L35.9632 7.41838L36.9509 7.34368L29.0243 13.8842C28.7753 13.685 28.4682 13.5605 28.1279 13.5605C27.439 13.5605 26.8663 14.0502 26.7334 14.6976L24.5256 14.6478C24.3928 13.9921 23.8118 13.4941 23.1229 13.4941C22.3344 13.4941 21.6953 14.1415 21.6953 14.93C21.6953 15.262 21.8115 15.5608 22.0024 15.8098L21.3217 16.615C21.1142 16.4988 20.8901 16.4323 20.6411 16.4323C20.4087 16.4323 20.1929 16.4904 19.9937 16.5983L17.7361 13.8593C17.9519 13.6103 18.0764 13.2949 18.0764 12.938C18.0764 12.1495 17.4373 11.5021 16.6488 11.5021C15.8602 11.5021 15.2128 12.1412 15.2128 12.938C15.2128 13.1289 15.2543 13.3115 15.3207 13.4692L8.0498 19.3042L8.40671 19.7607L15.6444 13.9589C15.9018 14.2162 16.2587 14.3739 16.6488 14.3739C16.8729 14.3739 17.0887 14.3158 17.2796 14.2162L19.5455 16.9636C19.338 17.2126 19.2135 17.528 19.2135 17.8766C19.2135 18.6651 19.8526 19.3042 20.6411 19.3042C21.4296 19.3042 22.0771 18.6651 22.0771 17.8766C22.0771 17.5446 21.9609 17.2375 21.7617 16.9968L22.4423 16.1916C22.6498 16.2995 22.8739 16.3742 23.1229 16.3742C23.8118 16.3742 24.3928 15.8845 24.5256 15.2371L26.7334 15.2869C26.8663 15.9426 27.439 16.4406 28.1362 16.4406C28.9247 16.4406 29.5721 15.8015 29.5721 15.0047C29.5721 14.764 29.5057 14.5399 29.3978 14.3407L37.3244 7.80019L37.0671 8.75471L38.0881 7.90809L38.5612 6.39746L36.9841 6.58007ZM15.6527 12.9297C15.6527 12.3819 16.101 11.9337 16.6488 11.9337C17.1966 11.9337 17.6365 12.3819 17.6365 12.9297C17.6365 13.4775 17.1883 13.9174 16.6488 13.9174C16.101 13.9174 15.6527 13.4692 15.6527 12.9297ZM20.6328 18.8477C20.085 18.8477 19.6451 18.3995 19.6451 17.86C19.6451 17.3122 20.0933 16.864 20.6328 16.864C21.1806 16.864 21.6289 17.3122 21.6289 17.86C21.6289 18.4078 21.1889 18.8477 20.6328 18.8477ZM23.1229 15.9177C22.5751 15.9177 22.1352 15.4695 22.1352 14.93C22.1352 14.3822 22.5834 13.934 23.1229 13.934C23.6707 13.934 24.1189 14.3822 24.1189 14.93C24.1189 15.4695 23.6707 15.9177 23.1229 15.9177ZM28.1362 15.9841C27.5884 15.9841 27.1485 15.5359 27.1485 14.9881C27.1485 14.4403 27.5967 14.0004 28.1362 14.0004C28.684 14.0004 29.1322 14.4403 29.1322 14.9881C29.1239 15.5359 28.684 15.9841 28.1362 15.9841Z" fill="white"/>
</svg>
