<svg width="211" height="170" viewBox="0 0 211 170" fill="none" xmlns="http://www.w3.org/2000/svg">
<path d="M91.7598 166.137L91.1947 156.611L91.1783 156.335L90.9361 156.202C86.9631 154.022 83.4427 151.224 80.4672 147.979L80.2805 147.776L80.0089 147.825L70.6165 149.54C70.4935 149.562 70.3773 149.508 70.316 149.401L70.3154 149.4L64.7021 139.429L64.7008 139.426C64.6439 139.32 64.6572 139.189 64.7389 139.093L64.7404 139.092L71.0789 131.956L71.2622 131.75L71.1852 131.485C69.9568 127.254 69.3921 122.801 69.5891 118.27L69.6011 117.994L69.3738 117.837L61.527 112.415L61.5253 112.414C61.4221 112.34 61.3814 112.212 61.4125 112.106L61.414 112.101L64.4979 101.074L64.4982 101.073C64.5329 100.953 64.6368 100.872 64.7581 100.864L74.2847 100.299L74.5605 100.283L74.6934 100.041C76.8737 96.0676 79.6714 92.5472 82.9163 89.5716L83.1199 89.385L83.0702 89.1133L81.3553 79.7209C81.3331 79.5975 81.3876 79.4817 81.4951 79.4202L91.4757 73.8053C91.5823 73.7484 91.7132 73.7616 91.8087 73.8434L91.8104 73.8448L98.9461 80.1833L99.1525 80.3666L99.4176 80.2897C103.648 79.0613 108.101 78.4965 112.632 78.6936L112.908 78.7056L113.065 78.4783L118.49 70.627C118.565 70.5194 118.691 70.4794 118.796 70.5103L118.802 70.5118L130.038 73.8562M91.7598 166.137C91.7672 166.259 91.8488 166.363 91.9686 166.397M91.7598 166.137L91.9686 166.397M130.038 73.8562L129.829 73.596C129.949 73.6307 130.031 73.7349 130.038 73.8562ZM130.038 73.8562L130.603 83.3825L130.62 83.6583L130.862 83.7912C134.835 85.9714 138.355 88.7692 141.331 92.0141L141.517 92.2177L141.789 92.1681L151.181 90.4531H151.182C151.305 90.4309 151.421 90.4861 151.482 90.5936L157.096 100.571L157.097 100.574C157.154 100.68 157.141 100.811 157.059 100.907L157.058 100.908L150.719 108.044L150.536 108.25L150.613 108.515C151.841 112.746 152.406 117.199 152.209 121.73L152.197 122.006L152.424 122.163L160.275 127.588H160.276C160.383 127.662 160.423 127.788 160.392 127.894L160.391 127.899L157.3 138.926V138.927M102.997 169.488L103.002 169.49C103.107 169.521 103.233 169.481 103.308 169.373L108.733 161.522L108.89 161.294L109.166 161.306C113.697 161.503 118.15 160.939 122.38 159.71L122.645 159.633L122.852 159.817L129.988 166.155L129.989 166.157C130.085 166.238 130.216 166.252 130.322 166.195L130.324 166.193L140.302 160.58C140.409 160.519 140.464 160.397 140.443 160.281V160.28L138.728 150.887L138.678 150.615L138.882 150.428C142.126 147.453 144.924 143.932 147.104 139.959L147.237 139.717L147.513 139.701L157.039 139.136M102.997 169.488L91.9697 166.398L91.9686 166.397M102.997 169.488L91.9686 166.397M157.039 139.136C157.16 139.128 157.265 139.047 157.3 138.927M157.039 139.136L157.3 138.927" stroke="#9C9C9C"/>
<path d="M110.902 139.5C121.672 139.5 130.402 130.77 130.402 120C130.402 109.23 121.672 100.5 110.902 100.5C100.133 100.5 91.4023 109.23 91.4023 120C91.4023 130.77 100.133 139.5 110.902 139.5Z" stroke="#9C9C9C"/>
<path d="M110.902 125C113.664 125 115.902 122.761 115.902 120C115.902 117.239 113.664 115 110.902 115C108.141 115 105.902 117.239 105.902 120C105.902 122.761 108.141 125 110.902 125Z" fill="#9C9C9C"/>
<path d="M14.7084 54.4841L14.5218 54.2805L14.2501 54.3302L7.6758 55.5305C7.67579 55.5305 7.67578 55.5305 7.67577 55.5305C7.66177 55.5331 7.65158 55.5308 7.64424 55.5274C7.63696 55.5239 7.62905 55.5178 7.62236 55.5063C7.62226 55.5061 7.62216 55.5059 7.62206 55.5057L3.69399 48.5283C3.69373 48.5278 3.69348 48.5273 3.69323 48.5268C3.68344 48.5076 3.68493 48.4836 3.70139 48.4638C3.70171 48.4634 3.70203 48.463 3.70236 48.4626L8.1382 43.4689L8.32152 43.2625L8.24455 42.9974C7.38911 40.0514 6.9959 36.9506 7.13308 33.7955L7.14508 33.5195L6.91778 33.3624L1.42639 29.5682C1.42602 29.568 1.42566 29.5677 1.42531 29.5674C1.41594 29.5605 1.40897 29.5509 1.40522 29.5404C1.40143 29.5299 1.40195 29.5217 1.40359 29.5161H1.40362L1.40511 29.5108L3.56362 21.7931C3.56369 21.7929 3.56375 21.7927 3.56382 21.7925C3.57048 21.7701 3.58873 21.7561 3.61048 21.7547C3.61057 21.7547 3.61065 21.7547 3.61074 21.7547L10.279 21.3592L10.5548 21.3428L10.6877 21.1006C12.2058 18.3342 14.154 15.8828 16.4136 13.8107L16.6172 13.624L16.5676 13.3524L15.3672 6.77807C15.3671 6.77794 15.3671 6.77781 15.3671 6.77767C15.3647 6.76386 15.367 6.7538 15.3704 6.74651C15.3738 6.73922 15.3799 6.73129 15.3915 6.7246C15.3917 6.72451 15.3918 6.72442 15.392 6.72432L22.3755 2.79551C22.3948 2.78569 22.4188 2.78718 22.4386 2.80368L27.4335 7.24047L27.6399 7.42379L27.905 7.34682C30.851 6.49138 33.9517 6.09817 37.1069 6.23535L37.3829 6.24735L37.5399 6.02005L41.3373 0.52414L41.3374 0.52401C41.3538 0.500193 41.3762 0.498273 41.3862 0.501198V0.501227L41.3916 0.502719L49.1092 2.66123C49.1094 2.66129 49.1096 2.66136 49.1099 2.66142C49.1323 2.66812 49.1464 2.68648 49.1477 2.70835L49.5432 9.37662L49.5596 9.65243L49.8018 9.78535C52.5682 11.3034 55.0196 13.2516 57.0917 15.5113L57.2783 15.7148L57.55 15.6652L64.1243 14.4648C64.1244 14.4648 64.1245 14.4648 64.1246 14.4647C64.1385 14.4623 64.1485 14.4646 64.1558 14.468C64.1632 14.4714 64.1711 14.4776 64.1778 14.4893C64.1779 14.4894 64.178 14.4895 64.178 14.4896L68.1061 21.4717C68.1063 21.4722 68.1066 21.4726 68.1068 21.473C68.1166 21.4923 68.1152 21.5164 68.0987 21.5362C68.0984 21.5366 68.0981 21.537 68.0977 21.5374L63.6619 26.5311L63.4786 26.7375L63.5555 27.0026C64.411 29.9486 64.8042 33.0494 64.667 36.2045L64.655 36.4805L64.8823 36.6376L70.3782 40.4349L70.3783 40.435C70.4021 40.4515 70.4041 40.4738 70.4011 40.4839L70.3997 40.4889L68.2365 48.2068C68.2364 48.2071 68.2363 48.2073 68.2362 48.2076C68.2296 48.2299 68.2114 48.2438 68.1897 48.2453C68.1896 48.2453 68.1895 48.2453 68.1893 48.2453L61.5211 48.6408L61.2453 48.6572L61.1123 48.8994C59.5942 51.6658 57.6461 54.1172 55.3864 56.1893L55.1829 56.3759L55.2325 56.6476L56.4331 63.2232L56.4332 63.2237C56.4367 63.2427 56.4276 63.2643 56.4086 63.2754C56.4084 63.2755 56.4083 63.2756 56.4081 63.2757L49.426 67.2037C49.4255 67.204 49.425 67.2042 49.4245 67.2045C49.4053 67.2143 49.3813 67.2128 49.3616 67.1964C49.3611 67.1961 49.3607 67.1957 49.3603 67.1954L44.3666 62.7595L44.1602 62.5762L43.8951 62.6532C40.9491 63.5086 37.8484 63.9018 34.6932 63.7646L34.4172 63.7526L34.2601 63.9799L30.4628 69.4759L30.4627 69.476C30.4463 69.4998 30.4239 69.5017 30.4138 69.4988L30.4088 69.4974L22.6909 67.3341C22.6908 67.3341 22.6907 67.3341 22.6906 67.334C22.668 67.3275 22.6539 67.3092 22.6524 67.2873C22.6524 67.2872 22.6524 67.2871 22.6524 67.287L22.2569 60.6187L22.2405 60.3429L21.9983 60.21C19.2319 58.6919 16.7805 56.7437 14.7084 54.4841Z" stroke="#9C9C9C"/>
<path d="M35.9023 48.5C43.3582 48.5 49.4023 42.4558 49.4023 35C49.4023 27.5442 43.3582 21.5 35.9023 21.5C28.4465 21.5 22.4023 27.5442 22.4023 35C22.4023 42.4558 28.4465 48.5 35.9023 48.5Z" stroke="#9C9C9C"/>
<path d="M35.9023 38.5C37.8353 38.5 39.4023 36.933 39.4023 35C39.4023 33.067 37.8353 31.5 35.9023 31.5C33.9693 31.5 32.4023 33.067 32.4023 35C32.4023 36.933 33.9693 38.5 35.9023 38.5Z" fill="#9C9C9C"/>
<path d="M170.869 62.8207L170.682 62.6171L170.411 62.6667L165.789 63.5106L163.057 58.6572L166.178 55.1441L166.361 54.9377L166.284 54.6726C165.677 52.5828 165.398 50.3836 165.496 48.1458L165.508 47.8698L165.28 47.7128L161.419 45.0451L162.921 39.6772L167.608 39.3991L167.884 39.3828L168.017 39.1406C169.094 37.1786 170.476 35.4399 172.078 33.9701L172.282 33.7834L172.232 33.5117L171.388 28.8903L176.245 26.158L179.758 29.2786L179.965 29.4619L180.23 29.3849C182.32 28.7781 184.519 28.4993 186.757 28.5965L187.033 28.6085L187.19 28.3812L189.859 24.5175L195.225 26.0183L195.503 30.706L195.52 30.9819L195.762 31.1148C197.724 32.1914 199.462 33.5732 200.932 35.176L201.119 35.3796L201.391 35.33L206.012 34.4861L208.744 39.3428L205.624 42.8559L205.44 43.0623L205.517 43.3274C206.124 45.4172 206.403 47.6164 206.306 49.8542L206.294 50.1302L206.521 50.2872L210.385 52.9568L208.881 58.3228L204.193 58.6009L203.917 58.6172L203.784 58.8594C202.708 60.8214 201.326 62.5601 199.723 64.0299L199.519 64.2166L199.569 64.4882L200.413 69.1097L195.556 71.842L192.043 68.7214L191.837 68.5381L191.572 68.6151C189.482 69.2219 187.283 69.5007 185.045 69.4035L184.769 69.3915L184.612 69.6188L181.942 73.4825L176.576 71.9784L176.298 67.2906L176.282 67.0148L176.04 66.8819C174.078 65.8052 172.339 64.4235 170.869 62.8207ZM210.447 52.9997C210.447 52.9996 210.447 52.9996 210.447 52.9995V52.9996V52.9997ZM200.427 69.1856C200.427 69.1853 200.427 69.185 200.427 69.1847V69.1851V69.1856Z" stroke="#9C9C9C"/>
<path d="M185.902 58.5C191.149 58.5 195.402 54.2467 195.402 49C195.402 43.7533 191.149 39.5 185.902 39.5C180.656 39.5 176.402 43.7533 176.402 49C176.402 54.2467 180.656 58.5 185.902 58.5Z" stroke="#9C9C9C"/>
<path d="M185.902 51.5C187.283 51.5 188.402 50.3807 188.402 49C188.402 47.6193 187.283 46.5 185.902 46.5C184.522 46.5 183.402 47.6193 183.402 49C183.402 50.3807 184.522 51.5 185.902 51.5Z" fill="#9C9C9C"/>
</svg>
